HIERARCHY
ROOT Hips
{
    OFFSET   0.000000   0.000000   0.000000
    CHANNELS 6 Xposition Yposition Zposition Zrotation Xrotation Yrotation
    JOINT Chest
    {
        OFFSET   0.000000   8.007230   0.000000
        CHANNELS 3 Zrotation Xrotation Yrotation
        JOINT Chest2
        {
            OFFSET   0.000000  22.077100   0.000000
            CHANNELS 3 Zrotation Xrotation Yrotation
            JOINT Neck
            {
                OFFSET   0.000000  23.254800   0.000000
                CHANNELS 3 Zrotation Xrotation Yrotation
                JOINT Head
                {
                    OFFSET   0.000010  14.370000   1.956600
                    CHANNELS 3 Zrotation Xrotation Yrotation
                    End Site
                    {
                        OFFSET   0.000000  19.566000   0.000000
                    }
                }
            }
            JOINT LeftCollar
            {
                OFFSET   3.911900  19.017000  -0.467062
                CHANNELS 3 Zrotation Xrotation Yrotation
                JOINT LeftShoulder
                {
                    OFFSET  10.383700   0.000000   0.000000
                    CHANNELS 3 Zrotation Xrotation Yrotation
                    JOINT LeftElbow
                    {
                        OFFSET  26.662100   0.001193   0.000835
                        CHANNELS 3 Zrotation Xrotation Yrotation
                        JOINT LeftWrist
                        {
                            OFFSET  28.869000  -0.000058  -0.000075
                            CHANNELS 3 Zrotation Xrotation Yrotation
                            JOINT LeftFinger0
                            {
                                OFFSET   2.044660  -2.323460   3.252850
                                CHANNELS 3 Zrotation Xrotation Yrotation
                                JOINT LeftFinger01
                                {
                                    OFFSET   3.088130   0.000000   0.000000
                                    CHANNELS 3 Zrotation Xrotation Yrotation
                                    JOINT LeftFinger02
                                    {
                                        OFFSET   2.639450   0.000000   0.000000
                                        CHANNELS 3 Zrotation Xrotation Yrotation
                                        End Site
                                        {
                                            OFFSET   2.582190   0.000000   0.000000
                                        }
                                    }
                                }
                            }
                            JOINT LeftFinger1
                            {
                                OFFSET   8.364480   0.000000   3.252850
                                CHANNELS 3 Zrotation Xrotation Yrotation
                                JOINT LeftFinger11
                                {
                                    OFFSET   4.646920   0.000000   0.000000
                                    CHANNELS 3 Zrotation Xrotation Yrotation
                                    JOINT LeftFinger12
                                    {
                                        OFFSET   2.323460   0.000000   0.000000
                                        CHANNELS 3 Zrotation Xrotation Yrotation
                                        End Site
                                        {
                                            OFFSET   2.273050   0.000000   0.000000
                                        }
                                    }
                                }
                            }
                            JOINT LeftFinger2
                            {
                                OFFSET   8.364490   0.000016   1.078090
                                CHANNELS 3 Zrotation Xrotation Yrotation
                                JOINT LeftFinger21
                                {
                                    OFFSET   5.111620   0.000000   0.000000
                                    CHANNELS 3 Zrotation Xrotation Yrotation
                                    JOINT LeftFinger22
                                    {
                                        OFFSET   2.788150   0.000012   0.000000
                                        CHANNELS 3 Zrotation Xrotation Yrotation
                                        End Site
                                        {
                                            OFFSET   2.727660   0.000000   0.000000
                                        }
                                    }
                                }
                            }
                            JOINT LeftFinger3
                            {
                                OFFSET   7.899780   0.000014  -1.078090
                                CHANNELS 3 Zrotation Xrotation Yrotation
                                JOINT LeftFinger31
                                {
                                    OFFSET   4.646930   0.000000   0.000000
                                    CHANNELS 3 Zrotation Xrotation Yrotation
                                    JOINT LeftFinger32
                                    {
                                        OFFSET   2.323470   0.000000   0.000000
                                        CHANNELS 3 Zrotation Xrotation Yrotation
                                        End Site
                                        {
                                            OFFSET   2.273050   0.000000   0.000000
                                        }
                                    }
                                }
                            }
                            JOINT LeftFinger4
                            {
                                OFFSET   7.435090   0.000000  -3.252850
                                CHANNELS 3 Zrotation Xrotation Yrotation
                                JOINT LeftFinger41
                                {
                                    OFFSET   3.717550   0.000000   0.000000
                                    CHANNELS 3 Zrotation Xrotation Yrotation
                                    JOINT LeftFinger42
                                    {
                                        OFFSET   1.858770   0.000000   0.000000
                                        CHANNELS 3 Zrotation Xrotation Yrotation
                                        End Site
                                        {
                                            OFFSET   1.818440   0.000000   0.000000
                                        }
                                    }
                                }
                            }
                        }
                    }
                }
            }
            JOINT RightCollar
            {
                OFFSET  -3.911900  19.017000  -0.467063
                CHANNELS 3 Zrotation Xrotation Yrotation
                JOINT RightShoulder
                {
                    OFFSET -10.383700   0.000023   0.000000
                    CHANNELS 3 Zrotation Xrotation Yrotation
                    JOINT RightElbow
                    {
                        OFFSET -26.662100   0.001246   0.001011
                        CHANNELS 3 Zrotation Xrotation Yrotation
                        JOINT RightWrist
                        {
                            OFFSET -28.869000  -0.000026  -0.000078
                            CHANNELS 3 Zrotation Xrotation Yrotation
                            JOINT RightFinger0
                            {
                                OFFSET  -2.044660  -2.323490   3.252850
                                CHANNELS 3 Zrotation Xrotation Yrotation
                                JOINT RightFinger01
                                {
                                    OFFSET  -3.088130   0.000000   0.000000
                                    CHANNELS 3 Zrotation Xrotation Yrotation
                                    JOINT RightFinger02
                                    {
                                        OFFSET  -2.639460   0.000000   0.000000
                                        CHANNELS 3 Zrotation Xrotation Yrotation
                                        End Site
                                        {
                                            OFFSET  -2.582190   0.000000   0.000000
                                        }
                                    }
                                }
                            }
                            JOINT RightFinger1
                            {
                                OFFSET  -8.364480   0.000000   3.252850
                                CHANNELS 3 Zrotation Xrotation Yrotation
                                JOINT RightFinger11
                                {
                                    OFFSET  -4.646920   0.000000   0.000000
                                    CHANNELS 3 Zrotation Xrotation Yrotation
                                    JOINT RightFinger12
                                    {
                                        OFFSET  -2.323470   0.000000   0.000000
                                        CHANNELS 3 Zrotation Xrotation Yrotation
                                        End Site
                                        {
                                            OFFSET  -2.273050   0.000000   0.000000
                                        }
                                    }
                                }
                            }
                            JOINT RightFinger2
                            {
                                OFFSET  -8.364480   0.000000   1.078090
                                CHANNELS 3 Zrotation Xrotation Yrotation
                                JOINT RightFinger21
                                {
                                    OFFSET  -5.111620   0.000000   0.000000
                                    CHANNELS 3 Zrotation Xrotation Yrotation
                                    JOINT RightFinger22
                                    {
                                        OFFSET  -2.788160   0.000000   0.000000
                                        CHANNELS 3 Zrotation Xrotation Yrotation
                                        End Site
                                        {
                                            OFFSET  -2.727660   0.000000   0.000000
                                        }
                                    }
                                }
                            }
                            JOINT RightFinger3
                            {
                                OFFSET  -7.899780   0.000000  -1.078090
                                CHANNELS 3 Zrotation Xrotation Yrotation
                                JOINT RightFinger31
                                {
                                    OFFSET  -4.646930   0.000000   0.000000
                                    CHANNELS 3 Zrotation Xrotation Yrotation
                                    JOINT RightFinger32
                                    {
                                        OFFSET  -2.323470   0.000000   0.000000
                                        CHANNELS 3 Zrotation Xrotation Yrotation
                                        End Site
                                        {
                                            OFFSET  -2.273050   0.000000   0.000000
                                        }
                                    }
                                }
                            }
                            JOINT RightFinger4
                            {
                                OFFSET  -7.435090   0.000000  -3.252850
                                CHANNELS 3 Zrotation Xrotation Yrotation
                                JOINT RightFinger41
                                {
                                    OFFSET  -3.717550   0.000000   0.000000
                                    CHANNELS 3 Zrotation Xrotation Yrotation
                                    JOINT RightFinger42
                                    {
                                        OFFSET  -1.858760   0.000000   0.000000
                                        CHANNELS 3 Zrotation Xrotation Yrotation
                                        End Site
                                        {
                                            OFFSET  -1.818440   0.000000   0.000000
                                        }
                                    }
                                }
                            }
                        }
                    }
                }
            }
        }
    }
    JOINT LeftHip
    {
        OFFSET   9.783010   0.000000   0.000000
        CHANNELS 3 Zrotation Xrotation Yrotation
        JOINT LeftKnee
        {
            OFFSET   0.000073 -41.789100   0.001749
            CHANNELS 3 Zrotation Xrotation Yrotation
            JOINT LeftAnkle
            {
                OFFSET   0.000111 -41.133200  -0.000179
                CHANNELS 3 Zrotation Xrotation Yrotation
                JOINT LeftToe
                {
                    OFFSET   0.000000  -6.358960  14.674500
                    CHANNELS 3 Zrotation Xrotation Yrotation
                    End Site
                    {
                        OFFSET   0.000000   0.000000   3.913200
                    }
                }
            }
        }
    }
    JOINT RightHip
    {
        OFFSET  -9.783010   0.000000   0.000000
        CHANNELS 3 Zrotation Xrotation Yrotation
        JOINT RightKnee
        {
            OFFSET   0.000424 -41.789200   0.005205
            CHANNELS 3 Zrotation Xrotation Yrotation
            JOINT RightAnkle
            {
                OFFSET   0.000000 -41.133200  -0.000155
                CHANNELS 3 Zrotation Xrotation Yrotation
                JOINT RightToe
                {
                    OFFSET   0.000000  -6.358960  14.674500
                    CHANNELS 3 Zrotation Xrotation Yrotation
                    End Site
                    {
                        OFFSET   0.000000   0.000000   3.913200
                    }
                }
            }
        }
    }
}
MOTION
Frames: 4
Frame Time:   0.016667
 -0.034517  89.557600  -1.965370  -2.890730  -7.891760  -2.200610   0.740805   4.426120   0.666423   1.436210   8.860240   1.280970  -0.287862  -0.969844  -0.000508  -0.478847  -1.966460   4.907970  -3.178310   0.018282  -0.355596 -74.835100  15.672300  -0.794638  -1.980270  -1.761540 -17.188500  12.672600  -6.571280   2.999930  38.916700  30.996200 -55.694300 -31.754500  -0.003188  -0.001878 -10.871900  -0.001295  -0.001773 -23.725000   3.496610  -7.871890 -19.611600   0.003173   0.002258 -13.730900   0.002244  -0.000977 -27.863600   0.803872  -1.523870 -31.187800   0.008563   0.001864 -20.771100   0.002925   0.008873 -27.402100   0.791526  -1.530280 -28.769600   0.002763   0.004812 -19.160500   0.005349   0.003658 -28.155100   0.812233  -1.519680 -42.248900  -0.000695   0.002869 -28.137700  -0.001424   0.001325   8.895400   1.178510   5.716860  71.968300   3.020380  -6.090860  -3.761600  -4.523800  16.992100 -12.250200  -1.475530   0.259634 -34.902800  31.608700  64.119600  36.783400   0.011097  -0.008223  13.397400   0.004949   0.011468  25.501700   4.680460   9.700610  21.190400   0.004770  -0.001112  14.836700   0.001279  -0.003240  28.567600   3.000140   5.501840  39.529400  -0.003802  -0.001867  26.326600   0.000130   0.010974  29.553300   1.612650   2.860260  44.391300  -0.001506   0.005577  29.564100   0.000371   0.003741  44.113800  -2.365260  -2.435360  66.245900  -0.005429   0.008007  44.119800   0.006816   0.002496   3.152470   9.910050   2.990660   1.438170   0.070686   1.933980  -1.686550  -2.983320   1.200790   0.000000   0.000000   0.000000   2.910020   7.866900   0.866430  -1.200060   4.057770  -8.797070   1.481320  -4.785620   0.062474  -0.000000   0.000000   0.000000
 -0.027514  89.557700  -1.945090  -2.893120  -7.884150  -2.220130   0.738958   4.426120   0.666452   1.432500   8.860230   1.281150  -0.288031  -0.984443  -0.000509  -0.477905  -1.995940   4.904970  -3.178390   0.004719  -0.359442 -74.832000  15.681200  -0.794330  -1.967840  -1.773490 -17.188600  12.676900  -6.572040   2.999790  38.916600  30.991700 -55.667700 -31.754700  -0.003219  -0.001925 -10.874000  -0.001304  -0.001797 -23.727200   3.496500  -7.884530 -19.612300   0.003163   0.002251 -13.730900   0.002244  -0.000981 -27.863500   0.803841  -1.532210 -31.197800   0.008607   0.001826 -20.777700   0.002941   0.008913 -27.401800   0.791498  -1.538680 -28.770300   0.002765   0.004816 -19.161000   0.005368   0.003659 -28.158600   0.812196  -1.527960 -42.254000  -0.000692   0.002889 -28.141200  -0.001433   0.001335   8.900940   1.164400   5.718680  71.978000   3.011720  -6.115190  -3.760730  -4.512080  17.000200 -12.250400  -1.480110   0.246144 -34.897900  31.608400  64.128500  36.787200   0.011092  -0.008226  13.397400   0.004942   0.011478  25.508100   4.680460   9.700610  21.195300   0.004773  -0.001112  14.838800   0.001282  -0.003240  28.567800   3.000170   5.497350  39.535100  -0.003802  -0.001871  26.330400   0.000130   0.010982  29.553700   1.612990   2.854800  44.391300  -0.001505   0.005570  29.564400   0.000368   0.003736  44.113400  -2.365490  -2.435600  66.245300  -0.005434   0.008003  44.119400   0.006809   0.002495   3.150190   9.934850   2.998290   1.438290   0.035926   1.940790  -1.680720  -2.983780   1.208410  -0.000000   0.000000   0.000000   2.900360   7.871750   0.862940  -1.194290   4.059580  -8.796860   1.483140  -4.793280   0.082883  -0.000000   0.000000  -0.000000
 -0.015624  89.557700  -1.911290  -2.897210  -7.873970  -2.252790   0.735443   4.426120   0.666652   1.425420   8.860190   1.281850  -0.288201  -1.011050  -0.000518  -0.476324  -2.049790   4.898250  -3.178530  -0.017361  -0.366826 -74.825500  15.697300  -0.794051  -1.946910  -1.791540 -17.188800  12.685800  -6.577360   2.999630  38.914500  30.986000 -55.640000 -31.756500  -0.003281  -0.001998 -10.878200  -0.001325  -0.001839 -23.733200   3.496400  -7.897160 -19.615600   0.003133   0.002236 -13.730900   0.002241  -0.000993 -27.863400   0.803799  -1.540540 -31.216000   0.008713   0.001731 -20.789900   0.002979   0.009013 -27.401500   0.791459  -1.547080 -28.774600   0.002766   0.004826 -19.163900   0.005418   0.003664 -28.165200   0.812146  -1.536240 -42.263900  -0.000687   0.002936 -28.147800  -0.001452   0.001359   8.912640   1.138250   5.723020  71.992800   3.002990  -6.154670  -3.755520  -4.495090  17.008200 -12.250700  -1.484680   0.224794 -34.890300  31.610500  64.145400  36.794800   0.011087  -0.008233  13.397400   0.004924   0.011488  25.517100   4.680460   9.700610  21.202700   0.004782  -0.001113  14.841900   0.001284  -0.003240  28.568400   3.000210   5.488300  39.543800  -0.003802  -0.001880  26.336200   0.000132   0.010999  29.554300   1.613340   2.845760  44.391300  -0.001500   0.005552  29.564700   0.000359   0.003724  44.110400  -2.365710  -2.435840  66.240900  -0.005449   0.007990  44.116400   0.006789   0.002490   3.146660   9.969790   3.010970   1.438420   0.001165   1.951090  -1.671600  -2.987010   1.221600   0.000000   0.000000   0.000000   2.885320   7.881650   0.859461  -1.185210   4.061390  -8.796660   1.486010  -4.806400   0.115084   0.000000   0.000000  -0.000000
 -0.005443  89.557700  -1.884620  -2.904000  -7.870910  -2.279460   0.731619   4.425720   0.666931   1.417720   8.859350   1.282730  -0.288160  -1.036820  -0.000541  -0.475937  -2.102190   4.889100  -3.183700  -0.034403  -0.374537 -74.817200  15.710200  -0.794917  -1.929380  -1.800140 -17.193200  12.697500  -6.592130   2.999640  38.908100  30.983100 -55.641100 -31.766900  -0.003360  -0.002048 -10.884300  -0.001357  -0.001882 -23.743200   3.496370  -7.892800 -19.623500   0.003078   0.002218 -13.735500   0.002229  -0.001012 -27.865800   0.803783  -1.536120 -31.234700   0.008869   0.001587 -20.802300   0.003036   0.009168 -27.402800   0.791442  -1.542650 -28.785800   0.002765   0.004841 -19.171300   0.005499   0.003674 -28.172500   0.812126  -1.531770 -42.274800  -0.000681   0.003003 -28.155100  -0.001480   0.001393   8.927270   1.111250   5.730800  72.002300   3.008330  -6.185570  -3.745790  -4.485660  17.003000 -12.251000  -1.475970   0.211970 -34.885900  31.619000  64.164400  36.802800   0.011087  -0.008242  13.400400   0.004898   0.011481  25.522800   4.677520   9.691870  21.207900   0.004794  -0.001112  14.843400   0.001281  -0.003242  28.569400   2.996450   5.479030  39.550100  -0.003803  -0.001891  26.340300   0.000136   0.011018  29.552900   1.611730   2.839920  44.389000  -0.001486   0.005524  29.563200   0.000341   0.003706  44.103100  -2.364770  -2.435780  66.230000  -0.005472   0.007968  44.109100   0.006757   0.002481   3.144430   9.981670   3.021740   1.438480   0.015422   1.956400  -1.665220  -3.010580   1.233370   0.000000   0.000000   0.000000   2.874930   7.892210   0.866104  -1.178970   4.061260  -8.796720   1.487910  -4.817250   0.136458  -0.000000   0.000000   0.000000
